<svg width="24" height="24" viewBox="0 0 24 24" fill="none" xmlns="http://www.w3.org/2000/svg">
<circle cx="12" cy="12" r="12" fill="white"/>
<path d="M7.6 11.775V11.7703V7.08999L7.5568 7.05795H7.5532L6.5704 6.33075C5.9692 5.88435 5.1124 5.90595 4.5796 6.43155C4.2232 6.78435 4 7.27395 4 7.81755V9.11427L7.6 11.775ZM16.96 11.7703V11.775L20.56 9.11427V7.81755C20.56 7.28115 20.344 6.79155 19.9912 6.43875C19.4656 5.91423 18.6358 5.85267 18.0386 6.29367L17.0032 7.05795L16.96 7.08999V11.7703ZM8.32 12.3024L12.0662 15.0716C12.1932 15.1655 12.3671 15.1655 12.4942 15.0716L16.24 12.3024V7.62207L12.28 10.5499L8.32 7.62207V12.3024ZM16.96 12.67V18.11C16.96 18.3087 17.1213 18.4699 17.32 18.4699H19.66C20.1572 18.4699 20.56 18.0671 20.56 17.57V10.0089L16.96 12.67ZM7.6 12.67L4 10.0089V17.57C4 18.0671 4.40284 18.4699 4.9 18.4699H7.24C7.43872 18.4699 7.6 18.3087 7.6 18.11V12.67Z" fill="black"/>
</svg>
